<?xml version="1.0" encoding="utf-8"?>
<!-- Generator: Adobe Illustrator 15.0.2, SVG Export Plug-In . SVG Version: 6.00 Build 0)  -->
<!DOCTYPE svg PUBLIC "-//W3C//DTD SVG 1.1//EN" "http://www.w3.org/Graphics/SVG/1.1/DTD/svg11.dtd">
<svg version="1.1" xmlns="http://www.w3.org/2000/svg" xmlns:xlink="http://www.w3.org/1999/xlink" x="0px" y="0px" width="400px"
	 height="400px" viewBox="0 0 400 400" enable-background="new 0 0 400 400" xml:space="preserve">
<g id="Background">
	<path fill="#231F20" d="M400,333.778c0,36.57-29.651,66.222-66.222,66.222H68.888c-36.574,0-66.222-29.651-66.222-66.222V68.888
		c0-36.574,29.648-66.222,66.222-66.222h264.89c36.57,0,66.222,29.648,66.222,66.222V333.778z"/>
	<path fill="#414042" d="M397.334,331.112c0,36.57-29.651,66.222-66.222,66.222H66.222C29.648,397.334,0,367.683,0,331.112V66.222
		C0,29.648,29.648,0,66.222,0h264.89c36.57,0,66.222,29.648,66.222,66.222V331.112z"/>
</g>
<g id="Type">
	<text transform="matrix(1 0 0 1 42.3374 283.4766)" fill="#FFFFFF" font-family="'Roboto-Thin'" font-size="283.5743">k:</text>
</g>
<g id="Lines">
</g>
</svg>
